<?xml version="1.0" encoding="UTF-8"?>
<svg id="Layer_2" xmlns="http://www.w3.org/2000/svg" version="1.1" viewBox="0 0 353 44">
  <!-- Generator: Adobe Illustrator 29.3.1, SVG Export Plug-In . SVG Version: 2.1.0 Build 151)  -->
  <defs>
    <style>
      .st0 {
        fill: #fff;
      }
    </style>
  </defs>
  <path id="bottom" class="st0" d="M335.2,27.8c-1.5-1.5-3.5-2.4-5.7-2.4h-21.2c-2.1,0-4.2.9-5.7,2.4l-15.8,16h4.5l13.5-13.7c.9-.9,2.2-1.4,3.4-1.4h21.2c1.3,0,2.5.5,3.4,1.4l13.6,13.7h4.6l-15.8-16h0Z"/>
  <path id="center" class="st0" d="M348.4,0l-18.1,18.2c-1.3,1.3-3.2,2.1-5.1,2.1h-18.3s0,0,0,0c-2.8,0-5.4,1.1-7.3,3l-20.4,20.4h4.6l18.1-18.1c1.4-1.4,3.2-2.1,5.1-2.1h18.3s0,0,0,0c2.7,0,5.4-1.1,7.4-3.1L353,0h-4.6Z"/>
  <path id="top" class="st0" d="M297.1,16c1.5,1.5,3.5,2.4,5.7,2.4h21.1c2.2,0,4.2-.8,5.7-2.4L345.5,0h-4.6l-13.6,13.7c-.9.9-2.1,1.4-3.4,1.4h-21.1c-1.3,0-2.5-.5-3.4-1.4L285.8,0h-4.6l15.9,16Z"/>
  <path id="m" class="st0" d="M272.3,11.1h3.3v20.2h-3.8v-15.2l-14.3,11.3h-2.2l-14.3-11.3v15.2h-3.8V11.1h3.5l15.8,12.9,15.7-12.9h0Z"/>
  <path id="r2" class="st0" d="M231.4,31.3h-4.8l-6.8-7.6h-15.7v7.6h-3.9V11.1h25.7c3.3,0,4.8,1.4,4.8,4.8v2.8c0,3.4-1.4,4.8-4.8,4.8h-1.4c0,.1,7,7.8,7,7.8h0ZM204,14v7h20.2c1.9,0,2.4-.5,2.4-2.4v-2.2c0-1.9-.6-2.4-2.4-2.4h-20.2Z"/>
  <path id="o" class="st0" d="M166.7,31.3c-3.7,0-5.3-1.7-5.3-5.4v-9.5c0-3.7,1.7-5.4,5.3-5.4h21.2c3.7,0,5.3,1.7,5.3,5.4v9.5c0,3.7-1.7,5.4-5.3,5.4h-21.2ZM186.5,28.1c2.1,0,2.9-.8,2.9-2.9v-8.1c0-2.1-.8-2.9-2.9-2.9h-18.3c-2.1,0-2.9.7-2.9,2.9v8.1c0,2.2.8,2.9,2.9,2.9h18.3Z"/>
  <path id="f" class="st0" d="M155.9,14.4h-24.3v5.7h23.2v3.1h-23.2v8.2h-3.9V11.1h28.2v3.2h0Z"/>
  <path id="r" class="st0" d="M121.7,31.3h-4.8l-6.8-7.6h-15.7v7.6h-3.9V11.1h25.7c3.3,0,4.8,1.4,4.8,4.8v2.8c0,3.4-1.4,4.8-4.8,4.8h-1.4c0,.1,7,7.8,7,7.8h0ZM94.3,14v7h20.2c1.9,0,2.4-.5,2.4-2.4v-2.2c0-1.9-.6-2.4-2.4-2.4h-20.2Z"/>
  <path id="e" class="st0" d="M59.3,28.2h24.9v3.1h-28.8V11.1h28.5v3.1h-24.6v5.2h23.4v2.8h-23.4v6h0Z"/>
  <path id="p" class="st0" d="M18.8,31.3V11.1h25.7c3.3,0,4.8,1.4,4.8,4.8v3.7c0,3.4-1.4,4.8-4.8,4.8h-21.8v6.9h-3.9ZM22.7,21.6h20.2c1.9,0,2.4-.5,2.4-2.4v-2.7c0-1.9-.6-2.4-2.4-2.4h-20.2v7.5Z"/>
  <path id="i" class="st0" d="M0,11.1h4v20.2H0V11.1ZM0,0h4v7.1H0V0Z"/>
</svg>