<?xml version="1.0" encoding="UTF-8"?>
<svg id="Layer_2" xmlns="http://www.w3.org/2000/svg" version="1.1" viewBox="0 0 74 44">
  <!-- Generator: Adobe Illustrator 29.3.1, SVG Export Plug-In . SVG Version: 2.1.0 Build 151)  -->
  <defs>
    <style>
      .st0 {
        fill: #fff;
      }
    </style>
  </defs>
  <path id="bottom" class="st0" d="M55.9,27.8c-1.5-1.5-3.5-2.4-5.7-2.4h-21.2c-2.1,0-4.2.9-5.7,2.4l-15.8,16h4.5l13.5-13.7c.9-.9,2.2-1.4,3.4-1.4h21.2c1.3,0,2.5.5,3.4,1.4l13.6,13.7h4.6l-15.8-16h0Z"/>
  <path id="center" class="st0" d="M69.1,0l-18.1,18.2c-1.3,1.3-3.2,2.1-5.1,2.1h-18.3s0,0,0,0c-2.8,0-5.4,1.1-7.3,3L0,43.8h4.6l18.1-18.1c1.4-1.4,3.2-2.1,5.1-2.1h18.3s0,0,0,0c2.7,0,5.4-1.1,7.4-3.1L73.7,0h-4.6Z"/>
  <path id="top" class="st0" d="M17.8,16c1.5,1.5,3.5,2.4,5.7,2.4h21.1c2.2,0,4.2-.8,5.7-2.4L66.2,0h-4.6l-13.6,13.7c-.9.9-2.1,1.4-3.4,1.4h-21.1c-1.3,0-2.5-.5-3.4-1.4L6.5,0H1.9l15.9,16Z"/>
</svg>